<svg class="giraffe-icon" height='100px' width='100px'  xmlns="http://www.w3.org/2000/svg" xmlns:xlink="http://www.w3.org/1999/xlink" version="1.1" x="0px" y="0px" viewBox="5 5 90 90" enable-background="new 0 0 100 100" xml:space="preserve">
<style>.giraffe-icon{--fill: black;}@media (prefers-color-scheme: dark){.giraffe-icon{--fill: white}}polygon, path{fill: var(--fill);stroke: var(--fill)}</style>
<g><polygon points="63.023,22.083 63.023,22.083 63.023,22.083  "></polygon><path d="M74.748,13.142c0.046,0.079,0.068,0.116,0.076,0.129C74.789,13.211,74.543,12.794,74.748,13.142z"></path><path d="M66.865,15.358 M73.917,15.204c0.751-0.429,1.344-1.19,0.831-2.062c-1.017-1.73-3.986-1.71-5.703-1.75   c-1.022-0.023-2.058,0.002-3.073-0.135c-0.987-0.134-1.846-0.519-2.718-0.985c-0.46-0.246-2.028-1.285-2.36-0.373   c-0.192,0.528,1.568,1.615,0.149,1.307c-0.95-0.207-1.351,0.741-0.688,1.396c0.719,0.709,1.882,0.797,2.561,1.526   c1.262,1.354-3.612,2.218-3.728,3.247c-0.046,0.399,2.635-0.005,3.124,0.461c0.651,0.624-0.062,2.434-0.241,3.097   c-0.441,1.644-1.017,3.178-1.785,4.694c-1.878,3.699-4.021,7.284-6.077,10.889c-1.998,3.504-4.007,7.23-6.763,10.208   c-1.255,1.355-2.73,2.434-4.466,3.079c-1.745,0.648-3.593,1.017-5.374,1.552c-2.026,0.607-4.153,1.273-5.898,2.506   c-1.533,1.082-2.648,2.661-3.524,4.3c-1.099,2.056-1.39,4.321-1.816,6.581c-0.375,1.999-0.917,3.97-1.074,6.003   c-0.074,0.951-0.318,1.707-0.879,2.482c-0.251,0.346-0.509,0.716-0.502,1.162c0.009,0.562,0.236,1.084,0.117,1.651   c-0.042,0.206-0.783,1.652-0.398,1.619c0.761-0.065,1.655-0.783,2.204-1.264c1.735-1.519,0.479-3.927,0.401-5.862   c-0.041-1.039,0.143-2.063,0.427-3.061c0.28-0.984,0.594-2.126,1.182-2.978c0.402-0.586,0.479,0.232,0.501,0.548   c0.062,0.914,0.049,1.833,0.076,2.747c0.071,2.372,0.403,4.7,0.711,7.05c0.222,1.684,0.399,3.378,0.376,5.078   c-0.017,1.254-0.117,2.505-0.134,3.758c-0.021,1.44,0.074,2.88,0.349,4.296c0.07,0.362,0.15,0.722,0.242,1.078   c0.109,0.432,0.122,1.137,0.608,1.137c0.855,0,1.71,0,2.564,0c-0.907-3.823-1.379-7.621-0.954-11.541   c0.438-4.042,1.589-8.281,4.637-11.159c2.199-2.075,6.264-4.005,8.129-0.526c1.598,2.981,1.619,6.781,1.89,10.073   c0.175,2.129,0.404,4.247,0.694,6.361c0.191,1.393,0.379,2.785,0.521,4.182c0.079,0.772,0.144,1.545,0.187,2.32   c-0.082,0.291,0.022,0.388,0.31,0.29c0.197,0,0.394,0,0.591,0c0.492,0,0.983,0,1.475,0c-0.408-4.647-0.597-9.347-0.097-13.993   c0.464-4.291,1.489-8.474,3.052-12.495c0.742-1.909,1.482-3.813,1.844-5.84c0.276-1.547,0.507-3.091,0.91-4.614   c0.877-3.315,2.124-6.538,3.321-9.747c1.75-4.69,3.584-9.351,5.229-14.08c0.822-2.365,1.538-4.762,2.234-7.167   c0.575-1.992,1.115-4.181,3.003-5.333 M63.023,22.083C62.99,22.153,62.958,22.223,63.023,22.083   C63.09,21.942,63.057,22.012,63.023,22.083c0.41-0.876,1.165-0.137,0.851,0.595c-0.117,0.278-0.468,0.507-0.777,0.409   C62.711,22.963,62.908,22.328,63.023,22.083z M43.98,51.2c0.704-0.704,2.415-1.155,3.357-0.743c0.936,0.409,0.312,2.631,0,3.267   c-0.609,1.244-1.939,1.123-2.988,0.508C43.066,53.483,42.924,52.257,43.98,51.2z M49.553,57.258c1.6,0.433,1.641,2.405,1.448,3.757   c-0.219,1.531-1.02,2.887-2.722,2.1c-1.386-0.643-2.066-1.909-1.613-3.396C47.047,58.467,48.024,56.844,49.553,57.258z    M37.837,52.037C37.851,52,37.847,52.008,37.837,52.037L37.837,52.037z M41.602,52.267c-0.268,0.885-1.243,1.309-2.105,1.276   c-0.583-0.024-1.998-0.581-1.693-1.415c-0.012,0.033-0.023,0.064-0.032,0.089c0.007-0.02,0.017-0.046,0.032-0.089   C38.155,51.168,41.994,50.972,41.602,52.267z M34.562,52.98C34.524,53.022,34.507,53.041,34.562,52.98L34.562,52.98z M34.664,52.87   C34.711,52.818,34.698,52.834,34.664,52.87L34.664,52.87z M34.611,52.928c0.477-0.522,1.58-0.126,2.054,0.19   c0.673,0.448,0.865,1.131,0.364,1.8C35.979,56.318,33.714,53.912,34.611,52.928z M31.739,56.031   c0.146-0.531,0.581-1.015,1.021-1.326c0.306-0.215,1.014-0.526,0.729,0.147c-0.218,0.515-0.6,1.002-1.003,1.384   C32.153,56.551,31.542,56.745,31.739,56.031z M31.988,73.653C31.986,73.664,31.986,73.664,31.988,73.653L31.988,73.653z    M32.013,73.482c-0.114,0.771-0.453,2.144-1.453,2.14c-1.169-0.003-1.096-1.167-0.922-1.999c0.169-0.805,0.146-1.892,1.168-1.999   C31.979,71.499,32.15,72.555,32.013,73.482z M32.006,68.747c0.007-0.139,0.014-0.275,0,0.005c-0.014,0.278-0.008,0.143,0,0.003   c-0.021,0.424,0.028,0.982-0.371,1.26c-0.39,0.271-1.005,0.296-1.43,0.1c-0.882-0.406-0.909-1.982-0.919-2.798   c-0.004-0.451-0.028-1.048,0.304-1.404c0.385-0.409,1.146-0.283,1.612-0.116C32.435,66.241,32.059,67.732,32.006,68.747z    M30.528,63.558c0.045,0.06,0.087,0.118,0.117,0.16C30.621,63.684,30.584,63.635,30.528,63.558   c-0.791-1.09-1.164-3.008-0.428-4.203c0.305-0.496,0.867-1.026,1.447-1.176c0.666-0.17,1.036,0.505,1.245,1.021   c0.48,1.183,0.908,2.874,0.58,4.143C33.021,64.694,31.223,64.513,30.528,63.558z M30.412,63.397   C30.359,63.323,30.37,63.339,30.412,63.397L30.412,63.397z M36.203,66.331c0.158-0.119,0.315-0.237-0.001,0.001   c-0.316,0.238-0.16,0.12-0.002,0.001c-0.354,0.266-2.974,1.931-3.269,1.118c-0.182-0.501,0.446-1.41,0.563-1.898   c0.195-0.808,0.043-1.68,0.381-2.455c0.595-1.364,2.268-1.403,2.966-0.109C37.495,64.202,37.312,65.495,36.203,66.331z    M33.979,59.42c-0.275-0.713-0.565-1.54-0.607-2.308c-0.041-0.741,0.552-1.028,1.183-1.199c0.602-0.161,1.34-0.333,1.966-0.229   c0.659,0.106,0.93,0.833,1.105,1.393c0.317,1.016,0.882,3.255-0.389,3.861C35.843,61.604,34.48,60.717,33.979,59.42z    M41.306,63.343C41.313,63.332,41.313,63.332,41.306,63.343L41.306,63.343z M41.21,63.527c-0.397,0.763-1.317,1.734-2.274,1.521   c-0.954-0.213-1.669-1.389-1.284-2.315C38.385,60.971,42.421,61.208,41.21,63.527z M40.758,59.66   c0.082,0.065,0.164,0.13,0.184,0.146C40.929,59.796,40.876,59.754,40.758,59.66C40.43,59.398,40.592,59.527,40.758,59.66   c-1.021-0.814-1.854-2.664-1.169-3.914c0.749-1.371,2.81-0.96,3.909-0.332c1.552,0.89,1.531,2.355,0.723,3.804   C43.451,60.602,41.958,60.614,40.758,59.66z M45.635,64.148C45.732,64.12,45.827,64.091,45.635,64.148   C45.442,64.205,45.539,64.177,45.635,64.148c-0.721,0.214-1.767,0.087-2.334-0.449c-0.515-0.487-0.461-1.669,0.244-1.945   c0.811-0.318,1.707,0.029,2.276,0.637C46.409,63.019,46.649,63.847,45.635,64.148z M49.706,73.591   C49.648,73.973,49.678,73.782,49.706,73.591c-0.053,0.354-0.167,2.372-0.996,1.697c-0.357-0.288-0.44-0.882-0.554-1.295   c-0.143-0.519-0.364-1.021-0.475-1.549c-0.187-0.889,0.674-1.302,1.456-1.16C50.18,71.472,49.813,72.87,49.706,73.591   c0.009-0.061,0.018-0.118,0.024-0.16C49.724,73.466,49.716,73.514,49.706,73.591z M49.925,67.601   c-0.428,0.547-1.578,3.459-2.609,1.997c-0.622-0.883-1.203-2.795-0.842-3.849c0.417-1.226,2.339-1.37,3.376-1.03   c0.547,0.181,1.2,0.62,1.25,1.253C51.154,66.648,50.289,67.135,49.925,67.601z M53.927,59.51   C53.855,59.731,53.891,59.621,53.927,59.51c-0.208,0.644-0.902,1.397-1.652,1c-0.696-0.367-0.406-1.848-0.254-2.438   c0.17-0.663,0.75-1.34,1.507-1.008C54.363,57.428,54.144,58.843,53.927,59.51z M55.958,50.489   C55.911,50.729,55.934,50.611,55.958,50.489c-0.169,0.868-0.782,1.674-1.085,2.505c-0.331,0.91-0.642,1.754-1.715,1.9   c-0.956,0.13-2.003,0.087-2.969,0.117c-0.828,0.029-1.439-0.298-1.498-1.195c-0.102-1.549,0.504-3.703,2.304-3.799   c1.042-0.056,2.079-0.127,3.119-0.206c0.527-0.04,2.024-0.25,1.845,0.675C55.981,50.367,56.004,50.248,55.958,50.489z    M57.557,45.964c-0.909,1.437-3.282,1.835-4.819,1.958c-1.056,0.084-4.145,0.226-2.733-1.546c1.14-1.43,3.037-3.024,4.848-3.459   C56.429,42.539,58.612,44.29,57.557,45.964z M59.896,39.473c-0.343,0.716-0.809,1.487-1.428,2c-0.507,0.419-1.119,0.244-1.715,0.17   c-1.195-0.146-3.199-0.407-2.332-2.101c0.744-1.452,2.351-1.891,3.842-2.021c0.385-0.034,1.739-0.395,2.007-0.001   C60.604,38.012,60.106,39.032,59.896,39.473z M61.931,33.518c0.041-0.08,0.079-0.159,0.103-0.204   C62.015,33.35,61.982,33.414,61.931,33.518C61.725,33.931,61.827,33.725,61.931,33.518c-0.626,1.253-2.023,2.201-3.389,2.434   c-0.491,0.083-1.288,0.137-1.598-0.364c-0.301-0.485-0.004-1.213,0.201-1.676c0.63-1.434,1.529-2.214,3.071-2.496   c0.503-0.091,1.371-0.379,1.749,0.12C62.383,32.087,62.213,32.951,61.931,33.518z M63.05,28.461   c0.021-0.031,0.041-0.061,0.056-0.084C63.093,28.396,63.076,28.421,63.05,28.461c-0.435,0.651-1.128,1.211-1.895,1.396   c-0.948,0.229-1.132-0.323-0.694-1.067c0.35-0.596,0.887-1.376,1.577-1.602C62.953,26.891,63.573,27.677,63.05,28.461z    M62.978,28.57c0.004-0.006,0.01-0.014,0.017-0.024C62.987,28.556,62.981,28.565,62.978,28.57z M65.005,25.148   c-0.014,0.047-0.022,0.076-0.028,0.094C64.983,25.22,64.994,25.184,65.005,25.148c-0.164,0.543-0.529,1.267-1.212,1.128   c-0.7-0.143-1.271-0.777-1.27-1.499C62.526,23.652,65.407,23.831,65.005,25.148z M65.034,25.055   C65.041,25.029,65.044,25.022,65.034,25.055L65.034,25.055z M67.271,13.209c-0.292,0-0.529-0.237-0.529-0.53   c0-0.292,0.237-0.53,0.529-0.53c0.293,0,0.53,0.238,0.53,0.53C67.802,12.972,67.564,13.209,67.271,13.209z"></path><path d="M74.824,13.271C74.828,13.279,74.828,13.279,74.824,13.271L74.824,13.271z"></path><polygon points="40.757,59.659 40.758,59.66 40.757,59.659  "></polygon><polygon points="45.635,64.148 45.635,64.148 45.634,64.148  "></polygon><polygon points="55.958,50.49 55.958,50.489 55.958,50.487  "></polygon><path d="M49.925,67.601C50.385,67.012,49.465,68.188,49.925,67.601L49.925,67.601z"></path><polygon points="36.202,66.332 36.203,66.331 36.2,66.333  "></polygon><polygon points="61.931,33.518 61.931,33.518 61.93,33.519  "></polygon><path d="M49.73,73.431c0.001-0.012,0.003-0.025,0.004-0.034C49.733,73.406,49.731,73.417,49.73,73.431z"></path><path d="M49.734,73.396C49.739,73.368,49.74,73.362,49.734,73.396L49.734,73.396z"></path></g></svg>
